<svg width="343" height="100" version="1.0" xml:space="preserve" xmlns="http://www.w3.org/2000/svg"><path style="clip-rule:evenodd;fill:#75b8fa;fill-opacity:1;fill-rule:evenodd" d="M292.372 0c-11.94 1.08-23.86 6.41-33.32 15.88-20.27 20.32-21.51 52.02-2.77 70.8 18.75 18.79 50.38 17.54 70.66-2.77 20.28-20.32 21.51-52.01 2.77-70.8a44.664 44.664 0 0 0-12.97-9.05c-.57 2.86-2.06 5.72-4.43 8.09-5.53 5.54-13.75 6.29-18.36 1.67-3.45-3.46-3.9-8.95-1.58-13.82z"/><path style="clip-rule:evenodd;opacity:.880081;fill:#75b8fa;fill-opacity:1;fill-rule:evenodd" d="M0 .82h55.36c.54 2.74.81 5.52.81 8.34 0 3.01-.27 5.88-.81 8.62H19.81V40.9h28.23c.54 2.92.81 5.75.81 8.48 0 2.92-.27 5.79-.81 8.62H19.81v41.18c-3.44.55-6.69.82-9.77.82-3.35 0-6.69-.27-10.04-.82zM68.32.82C71.67.27 74.88 0 77.96 0c3.17 0 6.47.27 9.91.82v81.12h33.79c.27 1.55.45 3.03.54 4.45.09 1.41.14 2.76.14 4.04 0 1.46-.05 2.9-.14 4.31-.09 1.41-.27 2.9-.54 4.45H68.32zM134.89.82c3.35-.55 6.65-.82 9.91-.82s6.6.27 10.04.82v98.36c-3.44.55-6.74.82-9.91.82-3.35 0-6.69-.27-10.04-.82V.82zM168.25 1.22C176.74.48 185.24 0 193.76 0c4.52 0 9.11.45 13.77 1.36 4.66.91 8.87 2.6 12.62 5.09 3.75 2.49 6.81 5.96 9.16 10.39 2.35 4.44 3.53 10.19 3.53 17.25 0 7.06-1.18 12.79-3.53 17.19-2.35 4.39-5.38 7.86-9.09 10.39-3.71 2.54-7.85 4.26-12.42 5.16-4.57.91-9.07 1.36-13.5 1.36-2.08 0-4.17-.06-6.24-.27V99.3c-4.76.75-9.72.8-14.52.54-1.72-.09-3.48-.27-5.29-.54V1.22zm19.81 50.27c1.09.18 2.1.27 3.05.27h3.46c2.26 0 4.48-.29 6.65-.88 4.52-1.22 7.85-4 9.77-8.29 1-2.22 1.49-4.96 1.49-8.22 0-3.35-.5-6.18-1.49-8.49-1.88-4.37-5.16-7.31-9.77-8.56-4.47-1.21-8.65-.98-13.16-.48v34.65z"/><path style="fill:#75b8fa;fill-opacity:1;fill-rule:evenodd;stroke:#000;stroke-width:0;stroke-miterlimit:4;stroke-dasharray:none;paint-order:stroke fill markers" d="M139.157 99.587c-.267-.07-1.326-.218-2.351-.331l-1.866-.206V.866l2.514-.27c1.383-.15 4.704-.272 7.38-.272s5.997.122 7.38.271l2.513.271V99.023l-1.054.205c-1.218.236-13.788.547-14.516.36zM68.443 49.982V.866l2.514-.27C74.145.251 82.525.253 85.392.598l2.19.264v81.366H121.589l.26 2.19c.328 2.754.324 9.605-.008 12.488l-.252 2.19H68.443zM4.217 99.587c-.268-.07-1.326-.218-2.352-.331L0 99.05V.81h27.537c22.885 0 27.566.075 27.706.441.093.242.344 2.132.557 4.2.368 3.57.068 10.159-.533 11.727-.17.443-2.236.5-17.836.5H19.787v23.356H47.96l.267 1.865c.344 2.408.344 10.728 0 13.137l-.267 1.865H19.787v41.122l-1.054.205c-1.219.236-13.789.547-14.516.36z"/><path style="fill:#75b8fa;fill-opacity:1;fill-rule:evenodd;stroke:none;stroke-width:0;stroke-miterlimit:4;stroke-dasharray:none;paint-order:stroke fill markers" d="M174.839 99.867c-1.956-.09-3.472-.213-5.05-.409a39.104 39.104 0 0 0-1.399-.158c-.106 0-.12-5.762-.12-49.012V1.276l.426-.05c.565-.067 5.228-.422 7.521-.574 9.548-.63 18.69-.773 23.355-.363 8.92.782 14.906 2.554 20.182 5.973 3.67 2.378 6.654 5.58 8.968 9.622 2.103 3.674 3.294 7.677 3.818 12.823.624 6.13.106 12.984-1.344 17.8-1.352 4.488-4.086 8.939-7.548 12.286-3.855 3.727-9.176 6.504-14.912 7.783-6.236 1.39-13.297 1.878-19.929 1.374l-.75-.057v31.38l-1.399.178c-.77.098-2.056.233-2.858.3-1.749.146-6.864.212-8.961.116zm23.395-48.324c1.43-.224 3.156-.639 4.258-1.023 2.985-1.042 5.492-2.955 7.174-5.472 1.787-2.676 2.6-5.35 2.803-9.225.215-4.09-.384-7.758-1.725-10.575-1.822-3.825-4.804-6.47-8.698-7.716-3.505-1.12-7.237-1.374-12.732-.864-.49.046-.974.101-1.074.123l-.183.04v34.69l.319.054c.957.162 1.75.188 5.074.168 3.288-.02 3.761-.04 4.784-.2z"/></svg>